<?xml version="1.0" standalone="no"?>
<!DOCTYPE svg PUBLIC "-//W3C//DTD SVG 1.1//EN" "http://www.w3.org/Graphics/SVG/1.1/DTD/svg11.dtd" >
<svg xmlns="http://www.w3.org/2000/svg">
<metadata>Generated by IcoMoon</metadata>
<defs>
<font id="icomoon" horiz-adv-x="512">
<font-face units-per-em="512" ascent="480" descent="-32" />
<missing-glyph horiz-adv-x="512" />
<glyph unicode="&#x20;" d="" horiz-adv-x="256" />
<glyph unicode="&#xe600;" d="M208.983 280.891l1.581 6.242c9.483 35.833 18.966 74.843 12.644 79.524-1.581 1.56-3.105 1.56-4.742 1.56-6.322 0-12.644 0-25.288 10.923-7.903 7.802-12.644 17.164-14.225 29.591 0 14.043 4.742 28.031 14.225 37.449 9.483 12.483 25.288 20.285 41.093 20.285 9.483 0 18.966-3.065 26.868-9.363 9.483-6.241 17.385-17.164 18.966-31.207 3.217-12.483 0-26.526-7.902-37.449-7.902-12.483-12.644-29.591-15.805-52.997 0 0-3.218-62.415-7.903-99.808-4.742-28.031-9.483-42.075-12.644-48.316 0-1.56-1.581-3.176-1.581-4.681v0l-48.939-134.137c-7.903-18.724-18.966-39.010-33.191-51.493l-9.483-7.802 66.325 291.68zM234.328 443.115c-12.644 0-26.869-10.923-28.449-24.966-1.581-7.802 0-17.164 6.322-23.406 4.742-6.241 12.644-9.306 20.547-9.306 4.742 0 9.483 1.56 12.644 4.681 9.483 6.242 14.224 17.164 14.224 29.591-1.58 10.923-6.322 18.724-14.225 21.79v0c-4.742 1.616-7.959 1.616-11.064 1.616v0zM235.852 461.839c7.903 0 17.386-3.065 23.708-7.802 20.546-14.043 25.288-43.691 11.063-62.415-7.902-14.043-12.644-32.768-15.805-54.558 0 0-3.218-62.415-7.903-98.249-4.742-35.833-12.644-46.756-14.225-53.053l-48.939-132.577c-7.903-17.164-17.386-37.449-31.61-49.932l63.219 277.58c12.644 46.755 20.547 81.084 12.644 88.942-7.903 6.241-11.064-1.56-28.449 14.043s-15.805 43.69 0 60.799c6.266 9.474 20.49 17.22 36.295 17.22v0zM231.111 380.812c4.742 0 11.064 1.56 15.805 4.681 20.546 14.043 22.070 49.932-1.581 59.238-4.742 1.56-7.903 3.176-11.064 3.176-15.805 0-29.973-12.483-33.19-28.031-4.742-20.452 12.644-39.065 30.029-39.065v0zM235.852 469.642c-17.386 0-33.191-7.802-44.254-21.79-9.483-10.922-15.805-24.966-14.225-40.57 0-12.483 6.322-24.966 14.225-32.768 12.644-10.923 18.966-12.483 25.288-12.483h3.218c0-1.56 1.581-6.242-1.581-23.406-3.218-14.043-6.322-31.207-12.644-52.997v-3.177l-63.219-277.58-4.742-21.789 17.386 14.043c15.805 12.483 26.869 32.768 34.714 51.493v0l48.939 132.577c0 0 0 1.56 1.581 3.176 3.218 7.802 7.903 20.285 12.644 49.932 4.741 35.833 7.902 93.567 7.902 99.808 3.217 21.846 7.902 39.010 14.224 49.932 7.902 10.923 11.063 26.526 7.902 40.514-3.217 14.043-9.483 26.526-20.546 32.768-7.846 9.251-17.329 12.316-26.812 12.316v0 0zM232.691 383.876c-7.903 0-15.805 3.065-20.547 10.923-6.322 6.242-7.903 15.604-6.322 24.966 3.105 14.043 17.386 26.526 29.973 26.526v0c3.218 0 6.322 0 9.483-1.56v0c12.644-4.681 14.224-17.164 15.805-21.789 1.58-12.483-4.741-24.966-14.225-31.208v0c-6.209-6.297-9.427-7.858-14.168-7.858v0 0zM169.528 129.646l71.122 57.734c0 0 29.973 51.493 29.973 54.558 3.217 21.846-12.644 43.69-12.644 43.69s-60.002-39.010-61.583-43.69l-26.869-112.291zM363.815 315.275c1.58 17.164 17.442 31.208 34.771 31.208 0 0 0 0-0.057 0-17.385 0-34.714-14.043-36.295-31.208-1.58-9.362 3.104-15.604 6.322-20.285 0.903-0.892 1.919-1.784 2.991-2.619-6.604 5.684-10.217 13.876-7.733 22.904v0zM393.788 284.067c-8.015 0-16.144 3.399-22.296 8.248 5.927-5.127 14.111-8.248 22.296-8.248v0zM415.972 340.185c-4.741 4.681-11.063 6.242-17.385 6.242v0c6.265 0 12.587-1.561 17.385-6.242 7.846-6.242 9.37-15.604 9.37-21.79 0-10.922-6.322-23.405-14.224-28.087-3.048-3.176-10.95-6.241-17.272-6.241 6.322 0 12.644 1.56 18.966 6.241 15.805 10.867 18.909 37.394 3.161 49.877v0zM480.829 305.913c-1.58 12.483-14.224 26.526-33.19 26.526-3.217 14.043-12.644 24.966-25.288 31.207-7.959 4.681-15.918 7.746-23.764 7.746-20.546 0-39.512-10.923-48.939-28.031-7.902-12.483-20.546-23.405-39.512-35.833-4.741-3.065-56.898-31.207-86.87-51.493-23.708-17.164-34.714-26.526-39.512-32.768-1.581-1.56-1.581-3.176-3.105-3.176l-97.99-102.93c-12.644-15.604-26.868-34.329-31.61-53.053l-4.742-21.789 17.386 12.483 222.737 179.333 4.741 3.177c25.288 21.846 53.68 45.251 63.219 45.251 0 0 1.58 0 1.58-3.177 3.217-6.241 7.902-10.923 23.707-17.164 4.741-1.56 11.063-3.177 15.805-3.177 20.546 0 41.093 14.043 48.939 34.273 0 1.56 1.58 1.56 1.58 3.177 3.217-1.561 4.741-3.177 6.322-4.681 3.217-4.681 7.902-6.241 12.644-6.241s9.483 1.56 12.644 6.241c3.217 3.232 4.741 9.418 3.217 14.099v0zM464.911 294.935c-1.58 0-4.741 1.56-6.322 3.065-4.741 6.241-12.644 10.923-18.966 10.923 0-3.177-1.58-6.241-3.217-9.363-6.322-17.164-23.707-29.591-42.617-29.591-4.741 0-9.483 0-12.644 3.176-22.127 9.363-17.385 15.604-25.288 18.725h-3.217c-11.063 0-37.932-21.846-71.122-51.493l-222.68-179.388c4.742 17.164 17.386 35.833 29.973 49.932l97.934 102.985c4.742 3.176 11.064 14.043 41.093 35.833 31.61 20.285 85.29 51.493 85.29 51.493 18.966 12.483 33.19 24.966 41.036 37.449 11.233 15.604 26.981 24.966 44.423 24.966 6.322 0 14.224-1.56 20.546-4.681 12.644-6.242 20.546-18.724 22.070-32.768h4.741c14.224 0 25.288-10.923 26.868-20.285 1.637-7.857-3.161-10.978-7.902-10.978v0zM444.364 327.814h-1.58c-3.104 15.604-11.063 26.527-23.707 32.768-6.265 4.681-14.168 6.241-22.070 6.241-17.385 0-36.295-10.922-44.254-26.526-7.902-12.483-22.127-24.966-41.093-37.449-3.104-1.56-56.898-31.208-86.87-51.493-23.708-17.164-33.19-26.526-37.932-32.768-1.581-1.56-3.218-3.176-3.218-3.176l-97.877-102.873c-14.225-14.043-26.868-32.768-31.61-51.493l-8.016-12.372 232.22 187.19 4.741 3.177c29.973 24.966 55.261 46.756 64.8 46.756h1.58c3.104-1.505 3.104-3.065 4.741-4.681 3.217-4.737 6.322-9.363 22.127-15.604 4.798-1.56 9.483-3.177 14.224-3.177 18.966 0 37.932 14.043 45.834 32.768 1.58 1.56 3.217 3.177 3.217 6.241 4.741 0 9.426-3.176 12.644-7.802 1.524-3.065 6.265-4.681 9.426-4.681 4.798 0 7.902 1.505 9.483 4.681 3.217 3.065 3.217 6.242 3.217 10.923-1.637 10.867-14.168 23.35-30.029 23.35v0zM411.174 296.495c-4.741-4.681-11.063-6.241-17.385-6.241-9.426 0-17.385 3.176-22.070 9.362-3.104 3.065-6.322 9.307-4.741 18.725 1.58 14.043 15.748 26.526 31.61 26.526 4.741 0 11.063-3.065 15.692-4.737 6.322-3.065 9.483-10.922 9.483-18.724 0.057-9.306-4.685-20.285-12.587-24.911v0zM227.893 206.104h-3.218c-4.742 1.56-9.483 3.176-12.644 7.802-3.218 4.681-3.218 9.306-3.218 14.043 1.581 9.363 9.483 15.604 18.966 15.604h3.105c4.742-1.56 9.483-3.177 12.644-7.802 3.105-4.681 3.218-9.363 3.218-14.044-1.411-9.418-9.314-15.604-18.853-15.604v0zM227.893 238.816h3.105c7.903-1.56 12.644-9.363 11.064-17.164-1.581-6.241-7.903-12.483-14.225-12.483h-3.218c-7.903 1.56-12.644 9.307-11.064 17.164 1.806 7.802 8.072 12.483 14.338 12.483v0zM227.893 246.619v0c-11.064 0-20.547-7.802-22.071-18.725-1.581-6.241 0-12.483 3.105-17.164 3.218-4.681 7.903-7.802 14.225-9.307h4.742c11.064 0 20.547 7.802 22.071 18.724 1.581 6.242 0 12.483-3.218 17.164s-7.903 7.802-14.225 9.306h-4.629z" />
<glyph unicode="&#xe601;" d="M140.455-31.717l-17.434 17.514 238.389 239.404-238.389 237.709 17.435 17.514 253.996-256.918-253.996-255.223z" />
<glyph unicode="&#xe602;" d="M501.697 16.716c0 15.059-4.37 49.48-8.615 66.69-8.678 21.577-17.292 30.181-28.060 38.724-6.461 4.366-25.843 12.971-58.147 23.664-30.15 8.605-62.517 21.577-73.221 28.030-10.768 6.454-19.445 34.421-19.445 43.026 0 0 0 2.151 6.461 8.605 12.985 12.845 28.060 38.724 36.674 64.539 8.615 34.421 17.228 103.326-15.075 146.415-17.228 23.664-47.442 36.635-84.053 38.786h-2.154c-36.674-2.151-66.76-15.059-84.053-38.786-32.303-43.026-25.843-111.931-15.075-146.415 6.46-25.815 23.689-51.695 36.674-64.539v0c2.154-2.151 6.46-6.454 6.46-8.605 4.244-8.605-8.614-36.635-19.446-40.875-10.768-6.454-45.288-19.425-73.284-30.118-32.303-10.757-51.749-19.425-58.147-23.664-10.768-8.605-21.599-17.211-28.059-38.724-6.46-17.147-8.614-51.632-10.831-66.69v-8.605c8.614-8.605 51.749-34.421 245.633-34.421 191.794 0 234.929 25.815 243.543 34.421l2.154 2.151v6.39h0.063z" />
<glyph unicode="&#xe603;" d="M354.666 113.6c42.666 37.866 68.8 95.466 68.8 154.667 0.534 116.8-94.933 211.733-211.733 211.733s-211.733-94.933-211.733-211.733c0-116.8 95.466-211.734 211.733-211.734 40.534 0 78.4 11.733 109.334 30.933l112-118.933 30.933 28.8-109.334 116.267zM209.066 92.267c-97.067 0-176 78.933-176 176s78.933 176 176 176c97.066 0 176-78.933 176-176-0.534-97.067-78.933-176-176-176v0z" horiz-adv-x="464" />
<glyph unicode="&#xe604;" d="M246.089 68.997v-60.082h15.851v60.082h-15.851zM153.313 33.784l30.163 52.038-13.715 7.95-30.163-52.038 13.715-7.95zM117.309 292.654l7.908 13.664-52.002 30.096-7.908-13.664 52.002-30.096zM170.349 350.384l13.677 7.886-30.011 52.049-13.677-7.886 30.011-52.049zM390.151 292.126l52.105 30.049-7.92 13.732-52.105-30.049 7.92-13.732zM354.241 33.214l13.678 7.883-29.999 52.055-13.678-7.883 29.999-52.055zM433.37 108.637l7.897 13.671-52.026 30.053-7.897-13.671 52.026-30.053zM40.275 228.791v-15.851h60.147v15.851h-60.147zM405.884 228.791v-15.851h60.082v15.851h-60.082zM70.829 110.089l52.189 29.899-7.88 13.755-52.189-29.899 7.88-13.755zM253.76 469.505c-136.081 0-248.384-110.769-248.384-248.384 0-136.081 110.706-248.384 248.384-248.384 136.081 0 248.384 110.706 248.384 248.384s-112.303 248.384-248.384 248.384v0zM253.76-1.952c-123.425 0-223.072 99.712-223.072 223.072 0 120.229 96.516 219.876 216.744 223.072v-223.072c0-3.196 1.598-6.328 6.328-7.926h1.598c3.196 0 4.73 1.598 6.328 3.196l110.705 194.565c63.279-39.565 104.442-109.171 104.442-189.836 0-121.827-99.712-223.072-223.072-223.072v0z" />
<glyph unicode="&#xe605;" d="M310.618 151.118c-7.805-9.338-1.572-24.884-1.572-24.884l64.059-105.797c0 0 10.947-13.981 18.752-13.981 9.376 0 18.752 7.773 18.752 7.773l49.969 71.575c0 0 4.661 9.338 4.661 17.111 0 10.903-17.18 13.981-17.18 13.981l-118.742 37.353c1.572 1.565-10.894 4.643-18.699-3.13v0 0zM304.332 204.016c6.233-10.903 23.413-7.773 23.413-7.773l118.794 34.222c0 0 15.609 6.208 18.752 15.546 1.572 9.338-3.142 18.676-3.142 18.676l-56.255 66.931c0 0-4.661 7.773-15.609 9.338s-17.18-12.468-17.18-12.468l-67.202-105.797c0 1.565-6.233-9.338-1.572-18.676v0 0zM249.649 244.499c14.038 3.13 15.609 23.319 15.609 23.319l-1.519 169.599c0 0-1.572 20.241-10.947 26.449-14.037 9.338-18.751 4.643-23.413 3.13l-98.419-37.353c0 0-9.376-3.13-14.037-10.903-7.805-10.903 6.233-28.014 6.233-28.014l103.133-138.506c-0.053 0.052 9.323-10.851 23.361-7.721v0 0zM224.665 177.567c0 12.468-15.609 20.241-15.609 20.241l-106.224 52.899c0 0-15.609 6.208-23.413 1.565-6.233-3.13-10.947-9.338-10.947-15.546l-6.285-84.043c0 0-1.572-13.981 3.142-21.807 4.662-9.338 23.413-3.13 23.413-3.13l123.404 26.449c3.143 4.695 12.518 6.26 12.518 23.372v0 0zM255.935 130.876c-10.947 6.208-23.413-4.643-23.413-4.643l-82.81-90.251c0 0-10.947-13.981-7.804-21.807 3.143-7.773 6.233-12.468 12.518-13.981l82.81-26.449c0 0 9.376-1.565 17.18 0 10.947 3.13 9.376 20.241 9.376 20.241l1.572 122.908c-0.053-3.13-0.053 9.338-9.428 13.981v0 0z" />
<glyph unicode="&#xe606;" d="M22.921 375.217h465.901zM0 398.080h512.259v-46.307h-512.259v46.308zM22.921 221.182h465.901zM0 244.368h512.259v-46.308h-512.259v46.308zM22.921 67.921h465.901zM0 91.301h512.259v-46.308h-512.259v46.308z" />
<glyph unicode="&#xe607;" d="M110.333-31.753c-4.831 0-9.711 0-12.865 3.252s-6.457 8.082-6.457 16.114v6.455c0 6.455 4.831 16.114 43.478 27.399 20.95 4.829 45.104 9.609 61.223 11.236v82.048c0 11.236 4.831 19.317 14.493 25.772v54.699c-20.95-1.626-38.647-3.252-46.731-3.252h-3.204c0 0 0 0-1.626 0v0c-12.865 0-24.154 9.708-29.034 22.52v0c0 1.626-17.697 86.976-22.576 114.325-9.563 27.399-38.597 107.87-38.597 109.496v0c-3.204 8.082-1.626 16.114 1.626 24.147 4.831 6.455 11.239 12.861 19.323 14.488l9.711 1.626c3.204 0 4.831 1.626 8.084 1.626 14.492 0 25.781-9.609 30.611-22.52 1.626-4.829 32.239-98.26 35.393-111.122 1.626-3.203 3.254-12.861 6.458-28.976 49.935 19.317 136.939 28.976 164.247 30.602v0c3.253 0 9.711-1.626 14.493-3.203 9.711-3.203 14.493-4.829 14.493-8.082 1.627-6.455 1.627-16.114-3.253-22.52-3.253-4.829-6.457-6.456-11.239-8.082-9.711-1.626-37.020-3.203-67.68-3.203-25.781 0-51.561-1.626-57.969-3.253-3.204 0-8.084-1.626-14.493-3.203-9.711-1.626-22.528-3.252-33.865-6.456 1.626-8.082 3.254-16.114 4.831-24.146 33.865 1.626 75.666 3.252 83.751 3.252v0c14.493 0 111.158-4.829 115.988-4.829 17.697 0 30.611-14.488 30.611-30.602v-11.087c0-17.691-14.493-30.601-30.611-30.601v0c0 0-28.985 1.626-57.969 3.252 20.95-27.399 45.104-82.097 72.512-162.667h11.239c12.865 0 19.323 1.626 20.95 3.252h3.253c4.831 0 9.711-3.252 11.239-8.082 1.627-6.455-1.627-11.236-6.457-14.488-8.084-3.252-12.865-4.829-14.493-6.455-3.253-1.626-6.457-3.252-9.613-3.252v0h-8.084c-4.831 0-8.084 1.626-12.865 3.252-4.831 0-8.084 3.252-9.711 8.082 0 0 0 0 0 1.626v6.455c-8.084 22.52-35.492 86.927-45.104 104.667-1.627 3.252-3.253 8.082-6.457 12.861-8.084 16.114-27.408 53.171-38.647 54.699h-3.253c-17.697 1.626-25.781 1.626-30.611 4.829-6.457 0-14.493-1.626-25.78-1.626v-56.325c9.711-4.829 14.493-14.488 14.493-25.772v-82.097c16.119-1.626 40.273-6.455 61.174-12.861 40.421-11.433 43.675-21.091 43.675-27.497v-6.455c0-11.236-16.119-17.691-41.9-17.691h-198.113c-1.626-1.626-4.831-1.626-8.084-1.626v0z" />
<glyph unicode="&#xe608;" d="M376.832 380.16c-42.496 14.848-89.6 3.584-119.296-26.112-31.232 29.696-77.312 40.96-119.296 25.088-61.44-23.040-92.16-89.088-71.168-150.016 22.528-59.904 190.464-184.32 190.464-184.32s0 0 0 1.024c12.288 8.704 167.936 125.952 188.928 184.32 22.528 61.44-8.704 127.488-69.632 150.016v0z" />
<glyph unicode="&#xe609;" d="M0 44.8v0zM118.4 196.8c46.4-1.6 76.8 46.4 68.8 107.2s-52.8 108.8-97.6 110.4c-46.4 1.6-76.8-44.8-68.8-105.6s51.2-110.4 97.6-112v0zM512 352v43.2c0 46.4-38.4 84.8-84.8 84.8h-342.4c-46.4 0-83.2-36.8-84.8-83.2 28.8 25.6 70.4 46.4 112 46.4h179.2l-40-33.6h-56c36.8-14.4 57.6-57.6 57.6-102.4 0-38.4-20.8-70.4-51.2-92.8-28.8-22.4-33.6-32-33.6-51.2 0-16 30.4-44.8 46.4-56 46.4-33.6 62.4-64 62.4-115.2 0-8-1.6-16-3.2-24h153.6c46.4 0 84.8 38.4 84.8 84.8v267.2h-96v-96h-32v96h-96v32h96v96h32v-96h96zM92.8 97.6h30.4c-12.8 12.8-24 28.8-24 49.6 0 11.2 3.2 22.4 9.6 33.6h-16c-36.8 0-68.8 12.8-92.8 32v-134.4c27.2 11.2 59.2 19.2 92.8 19.2v0 0zM1.6 36.8c0 3.2-1.6 4.8-1.6 8 0-3.2 1.6-6.4 1.6-8v0zM227.2 3.2c-8 28.8-33.6 43.2-72 70.4-12.8 4.8-27.2 6.4-43.2 6.4-44.8 0-86.4-17.6-110.4-44.8 8-38.4 43.2-67.2 83.2-67.2h144c1.6 4.8 1.6 11.2 1.6 17.6s-1.6 12.8-3.2 17.6v0 0z" />
<glyph unicode="&#xe60a;" d="M365.301-32h-96.167v256h-64.112v88h64.112v51.2c0 73.6 19.233 116.8 104.181 116.8h70.522v-88h-44.878c-33.659 0-35.261-12.8-35.261-35.2v-44.8h80.139l-8.014-88h-70.522v-256z" />
<glyph unicode="&#xe60b;" d="M435.744 485.12h-349.248c-47.328 0-86.496-39.168-86.496-86.496v-349.248c0-47.328 39.168-86.496 86.496-86.496h349.248c47.328 0 86.496 39.168 86.496 86.496v349.248c0 47.328-39.168 86.496-86.496 86.496v0zM166.464 256.64h187.68c3.264-9.792 4.896-21.216 4.896-32.64 0-55.488-44.064-99.552-99.552-99.552s-97.92 44.064-97.92 99.552c0 11.424 1.632 22.848 4.896 32.64v0zM456.96 256.64v-195.84c0-17.952-14.688-32.64-32.64-32.64h-326.4c-17.952 0-32.64 14.688-32.64 32.64v195.84h50.592c-1.632-9.792-3.264-21.216-3.264-32.64 0-81.6 66.912-148.512 148.512-148.512s148.512 66.912 148.512 148.512c0 11.424-1.632 22.848-3.264 32.64h50.592zM456.96 370.88c0-9.792-8.16-16.32-16.32-16.32h-32.64c-8.16 0-16.32 6.528-16.32 16.32v32.64c0 9.792 8.16 16.32 16.32 16.32h32.64c8.16 0 16.32-6.528 16.32-16.32v-32.64z" />
<glyph unicode="&#xe60c;" d="M426.352 485.12h-345.824c-46.864 0-85.648-38.784-85.648-85.648v-344.208c0-48.48 38.784-87.264 85.648-87.264h344.208c46.864 0 85.648 38.784 85.648 85.648v345.824c1.616 46.864-37.168 85.648-84.032 85.648v0zM279.296 139.296c-24.24 1.616-33.936 12.928-51.712 24.24-9.696-53.328-22.624-103.424-59.792-130.896-11.312 80.8 16.16 140.592 29.088 205.232-22.624 37.168 3.232 111.504 50.096 93.728 58.176-22.624-50.096-138.976 22.624-153.52 74.336-14.544 105.040 130.896 59.792 177.76-69.488 69.488-197.152 1.616-180.992-95.344 3.232-24.24 29.088-30.704 9.696-64.64-43.632 9.696-56.56 43.632-54.944 88.88 3.232 74.336 66.256 126.048 130.896 132.512 80.8 9.696 156.752-29.088 168.064-106.656 11.312-84.032-37.168-177.76-122.816-171.296v0 0z" />
<glyph unicode="&#xe60d;" d="M512 371.756c-19.2-8.033-38.4-14.459-60.8-16.066 22.4 12.853 38.4 33.739 46.4 57.839-20.8-12.853-43.2-20.886-67.2-25.706-19.2 20.886-46.4 33.739-75.2 33.739-57.6 0-105.6-46.592-105.6-106.037 0-8.033 1.6-16.066 3.2-24.1-88 4.82-164.8 46.592-217.6 110.857-9.6-16.066-14.4-33.739-14.4-53.019 0-36.952 19.2-69.084 46.4-88.364-17.6 0-33.6 4.82-48 12.853v-1.606c0-51.412 36.8-93.184 84.8-102.823-9.6-1.606-17.6-3.213-27.2-3.213-6.4 0-12.8 0-19.2 1.606 12.8-41.772 52.8-72.298 97.6-73.904-35.2-28.919-81.6-44.986-131.2-44.986-8 0-17.6 0-25.6 1.606 46.4-30.526 102.4-48.199 161.6-48.199 193.6 0 299.2 160.662 299.2 300.438v12.853c20.8 17.673 38.4 35.346 52.8 56.231v0 0z" />
<glyph unicode="&#xe60e;" d="M416 415.635h-320c-52.8 0-96-43.447-96-96.548v-193.097c0-53.101 43.2-96.548 96-96.548h320c52.8 0 96 43.447 96 96.548v193.097c0 53.102-43.2 96.549-96 96.549v0zM192 93.805v257.463l160-128.731-160-128.731z" />
<glyph unicode="&#xe60f;" d="M430.26 485.12h-343.4c-47.769 0-86.86-39.091-86.86-86.86v-343.4c0-47.769 39.091-86.86 86.86-86.86h343.4c47.769 0 86.86 39.091 86.86 86.86v343.4c0 47.769-39.091 86.86-86.86 86.86v0zM193.92 64.96h-64.64v226.24h64.64v-226.24zM161.6 323.52c-17.857 0-32.32 14.463-32.32 32.32s14.463 32.32 32.32 32.32c17.857 0 32.32-14.463 32.32-32.32s-14.463-32.32-32.32-32.32v0zM420.16 64.96h-64.64v129.28c0 17.857-14.463 32.32-32.32 32.32s-32.32-14.463-32.32-32.32v-129.28h-64.64v226.24h64.64v-40.125c13.332 18.31 33.71 40.125 56.56 40.125 40.158 0 72.72-36.182 72.72-80.8v-145.44z" />
<glyph unicode="&#xe610;" d="M426 480h-340c-47.3 0-86-38.7-86-86v-340c0-47.3 38.7-86 86-86h340c47.3 0 86 38.7 86 86v340c0 47.3-38.7 86-86 86zM256 320c-17.645 0-32-14.355-32-32v-128c0-52.936-43.065-96-96-96s-96 43.064-96 96v64h64v-64c0-17.645 14.355-32 32-32s32 14.355 32 32v128c0 52.935 43.065 96 96 96s96-43.065 96-89v-31l-41-12-23 12v31c0 10.645-14.355 25-32 25zM480 160c0-52.936-43.065-96-96-96s-96 43.064-96 103v62l23-12 41 12v-62c0-24.645 14.355-39 32-39s32 14.355 32 32v64h64v-64z" />
<glyph unicode="&#xe611;" d="M426.688 480h-341.345c-46.938 0-85.343-38.408-85.343-85.346v-341.312c0-46.965 38.405-85.342 85.343-85.342h341.345c46.937 0 85.312 38.376 85.312 85.342v341.312c0 46.938-38.375 85.346-85.312 85.346zM480 53.342c0-14.167-5.57-27.541-15.685-37.658-10.111-10.114-23.474-15.684-37.627-15.684h-170.688v224h-224v170.654c0 14.154 5.575 27.525 15.698 37.648s23.492 15.698 37.645 15.698h170.657v-224h224v-170.658z" />
<glyph unicode="&#xe612;" d="M430.955 480h-344.757c-47.413 0-86.198-38.784-86.198-86.197v-344.725c0-47.446 38.784-86.197 86.198-86.197h344.757c47.397 0 86.165 38.752 86.165 86.197v344.725c0 47.397-38.768 86.197-86.165 86.197v0zM369.514 63.541c-15.223-7.159-29.055-12.217-41.418-15.126-12.363-2.877-25.743-4.315-40.093-4.315-16.322 0-25.937 2.053-38.477 6.157-12.524 4.137-23.238 10.036-32.061 17.615-8.872 7.644-14.996 15.756-18.423 24.337s-5.123 21.056-5.123 37.378v125.143h-48.48v50.532c14.011 4.541 30.268 11.070 40.239 19.57 10.019 8.517 18.035 18.714 24.078 30.639 6.060 11.894 10.23 27.084 12.508 45.49h50.759v-82.546h82.497v-63.686h-82.513v-91.498c0-20.701-0.274-32.643 1.923-38.51 2.182-5.834 7.644-11.894 13.591-15.401 7.902-4.735 16.919-7.094 27.084-7.094 18.067 0 36.053 5.866 53.91 17.615v-56.301z" />
<glyph unicode="&#xe613;" d="M502.891 345.267v0c0 0-1.642 0 0 0-4.916 4.907-9.832 9.809-14.747 13.084-14.747 8.177-34.41 6.539-47.52-3.275h-1.637c-1.642 0-1.642-1.633-3.279-1.633-4.916 6.54-9.832 11.447-16.384 14.716-22.942 11.447-50.799 3.269-62.267-19.623-4.916-8.177-4.916-16.353-4.916-24.531l-65.541-29.433-29.495 1.638-18.026 22.893-11.469 57.233c16.384 9.814 27.852 29.433 26.215 52.33-1.637 21.256-13.111 39.247-27.857 47.418-6.553 3.275-14.747 4.907-21.3 3.275-26.215-1.637-45.879-26.168-42.605-57.238 1.642-21.255 13.111-39.247 27.857-47.423 4.916-1.632 8.195-1.632 13.111-3.269l6.553-111.195-196.629-166.796c-3.279-3.275-3.279-6.545-1.637-11.447 0-1.637 1.637-1.637 3.274-1.637 1.642-1.637 4.916-1.637 8.194 0l190.077 124.279 8.19-225.666c0-3.269 1.642-4.907 4.916-6.539 1.642 0 1.642-1.637 3.279-1.637 4.916 0 8.195 3.269 8.195 8.177l22.936 255.102 103.23 63.772c3.279-4.907 8.195-9.809 14.747-13.079 22.942-11.446 50.799-3.275 62.267 19.624 3.279 8.172 4.916 16.349 4.916 22.893 9.832 14.716 31.131 21.255 47.521 11.446-1.642 0 0 0 1.637-1.637l4.916-1.632 3.279 3.269c1.637 1.632 0 4.902 0 6.54v0zM211.221 389.42c-3.274 0-8.19 0-11.469 3.269-11.469 4.907-18.026 16.353-19.663 31.070-1.637 19.623 9.832 37.609 24.578 37.609 4.916 0 8.195 0 11.469-3.269 11.474-4.907 18.026-16.353 19.663-31.070 1.642-19.624-9.832-35.977-24.578-37.609v0zM248.911 245.518c-3.279-6.544-11.469-9.814-18.026-6.544-6.553 3.269-9.832 11.447-6.553 17.991 3.279 6.54 11.469 9.809 18.026 6.54 6.553-3.269 9.832-11.447 6.553-17.986v0zM422.598 312.56c-6.553-13.079-22.937-17.986-37.684-11.447-13.111 6.545-18.026 22.893-11.474 37.614 6.558 13.079 22.942 17.986 36.052 11.447 14.747-8.177 19.663-24.53 13.105-37.615v0z" />
<glyph unicode="&#xe614;" d="M463.221 397.039c-6.092 3.557-11.676 6.606-17.261 8.639-15.738 4.065-34.015-2.033-44.168-14.737l-1.523-0.508c-1.523-0.508-1.015-2.032-2.538-2.541-6.092 5.082-12.185 8.639-19.292 10.163-24.369 5.082-48.738-9.147-53.815-34.048-2.538-9.147-0.507-16.77 1.523-24.392l-54.83-43.703-14.215-3.049v1.017l-17.769 22.36-11.169 56.408c16.246 9.655 27.415 28.966 25.892 51.834-1.523 20.835-12.692 38.622-27.415 46.752-6.6 3.049-14.723 4.574-20.815 3.049-25.892-1.524-45.184-25.917-42.137-56.408 1.523-20.835 12.692-38.621 27.415-46.752 4.569-1.525 8.123-1.525 12.692-3.049l6.6-109.766 1.016-8.639-4.061-5.082-144.69-205.812c-2.031-4.065-1.523-7.115 1.523-11.18 0.507-1.524 2.031-1.017 3.554-0.508 2.031-1.017 5.077-0.508 7.615 2.033l139.613 153.977 7.107-201.238c0-3.049 1.523-4.574 4.569-6.606 1.523 0 1.523-1.524 3.046-1.524 4.569 0 8.123 3.049 8.123 8.131l22.338 248.498v0.508l1.523 1.524 81.737 85.374c4.062-4.065 10.154-7.115 17.261-8.639 24.369-5.082 48.738 9.147 53.815 34.048 1.015 8.639 0.507 16.77-1.015 22.868 5.584 16.262 24.369 27.95 42.137 22.36-1.523-0.508 0 0 2.031-1.017l5.077-0.508 2.031 4.065c1.523 2.033-1.015 4.573-1.523 6.098v0zM212.425 386.368c-3.046 0-8.123 0-11.169 3.049-11.169 4.573-17.769 16.261-19.292 30.49-1.523 19.31 9.646 37.097 24.369 37.097 4.569 0 8.123 0 11.169-3.049 11.169-4.574 17.769-16.262 19.292-30.49 1.523-19.311-10.154-35.572-24.369-37.097v0zM248.978 244.586c-3.046-6.607-11.169-9.655-17.769-6.607s-9.646 11.18-6.6 17.786c3.046 6.607 11.169 9.655 17.769 6.607 6.6-3.557 9.646-11.688 6.6-17.786v0zM395.699 346.221c-3.046-14.229-17.261-22.868-33-20.327-14.215 3.049-22.846 17.278-20.308 33.031 3.046 14.229 17.261 22.868 30.969 19.819 16.753-4.066 25.384-18.295 22.338-32.524v0z" />
<glyph unicode="&#xe615;" d="M390.406 470.746c-6.589 1.011-13.179 2.023-19.262 1.517-16.22-2.022-30.919-14.662-35.481-29.83l-1.521-1.011c-1.521-1.011-0.507-2.023-1.521-3.034-7.603 2.022-14.192 3.034-21.289 2.022-24.837-4.55-41.564-26.796-37.002-51.57 1.014-9.101 5.575-15.673 10.644-22.246l-33.961-60.671-2.028-1.517-9.631 12.64-11.151 56.12c16.22 9.606 27.371 28.818 25.851 51.57-1.52 20.729-12.672 38.425-27.371 46.514-6.589 3.034-14.7 4.55-20.782 3.034-25.851-1.517-45.113-25.785-42.071-56.12 1.52-20.729 12.672-38.425 27.371-46.514 4.562-1.517 8.11-1.517 12.672-3.034l6.589-109.207 1.52-22.751-1.52-2.023-56.77-244.2c-0.507-4.55 1.014-7.079 5.576-10.112 1.014-1.517 2.028-0.505 3.548 0.505 2.028-0.505 4.562 1.517 6.589 4.55l47.14 127.914 4.562-130.948c0-3.034 1.52-4.55 4.562-6.572 1.52 0 1.52-1.517 3.042-1.517 4.562 0 8.11 3.034 8.11 8.089l21.796 244.2 6.589 16.179 43.591 109.713c5.575-2.023 12.165-3.034 19.262-1.517 24.837 4.55 41.564 26.796 37.002 51.57-2.027 8.089-5.575 15.673-9.63 20.729-1.014 17.19 12.165 34.38 30.413 36.403-1.521-1.011 0 0 2.027-0.506l4.562 1.517 0.507 4.55c1.521 2.528-1.521 4.045-2.534 5.562v0zM211.477 385.807c-3.042 0-8.11 0-11.151 3.034-11.151 4.55-17.741 16.179-19.262 30.335-1.52 19.212 9.631 36.908 24.33 36.908 4.562 0 8.11 0 11.151-3.034 11.151-4.55 17.741-16.179 19.262-30.336 1.52-19.212-10.137-35.392-24.33-36.908v0zM247.973 244.747c-3.042-6.572-11.151-9.606-17.741-6.572s-9.631 11.123-6.589 17.696c3.042 6.572 11.151 9.606 17.741 6.572 6.589-3.539 9.631-11.628 6.589-17.695v0zM324.005 367.606c-14.192-2.528-27.372 7.584-30.919 22.751-2.534 14.157 7.603 27.302 21.289 29.83 16.22 2.022 29.906-7.584 31.933-21.74 3.041-13.651-7.096-27.302-22.303-30.841v0z" />
<glyph unicode="&#xe616;" d="M511.749 210.183l-511.95 0.050v27.635h511.899l0.050-27.685zM242.183 480h27.685v-511.899h-27.685v511.899z" />
<glyph unicode="&#xe617;" d="M490.447-42.376l-490.175 490.243 26.468 26.469 490.175-490.175-26.469-26.536zM0.456-15.713l490.171 490.171 26.51-26.51-490.171-490.171-26.51 26.51z" />
<glyph unicode="&#xe618;" d="M517.334 139.292l-17.618-17.692-241.869 242.815-240.087-242.815-17.689 17.764 259.558 258.788 257.704-258.86z" />
<glyph unicode="&#xe619;" d="M376.665 479.717l17.435-17.514-238.389-239.404 238.389-237.709-17.435-17.514-253.996 256.918 253.996 255.223z" />
<glyph unicode="&#xe61a;" d="M512.214 344.548l-17.618 17.692-241.869-242.815-240.087 242.815-17.689-17.764 259.558-258.788 257.704 258.86z" />
<glyph unicode="&#xe61b;" d="M336 384l-160 64-176-64v-384l176 64 160-64 176 64v384l-176-64zM192 407.135l128-51.2v-315.069l-128 51.199v315.070zM32 361.586l128 46.545v-315.9l-128-46.544v315.899zM480 86.414l-128-46.546v315.9l128 46.545v-315.899z" />
<glyph unicode="&#xe61c;" d="M128 153.6h-25.6c-14.131 0-25.6-11.443-25.6-25.6s11.469-25.6 25.6-25.6h25.6c14.131 0 25.6 11.443 25.6 25.6s-11.469 25.6-25.6 25.6zM128 256h-25.6c-14.131 0-25.6-11.469-25.6-25.6s11.469-25.6 25.6-25.6h25.6c14.131 0 25.6 11.469 25.6 25.6s-11.469 25.6-25.6 25.6zM128 358.4h-25.6c-14.131 0-25.6-11.469-25.6-25.6s11.469-25.6 25.6-25.6h25.6c14.131 0 25.6 11.469 25.6 25.6s-11.469 25.6-25.6 25.6zM230.4 307.2h179.2c14.157 0 25.6 11.469 25.6 25.6s-11.443 25.6-25.6 25.6h-179.2c-14.131 0-25.6-11.469-25.6-25.6s11.469-25.6 25.6-25.6zM409.6 256h-179.2c-14.131 0-25.6-11.469-25.6-25.6s11.469-25.6 25.6-25.6h179.2c14.157 0 25.6 11.469 25.6 25.6s-11.443 25.6-25.6 25.6zM409.6 153.6h-179.2c-14.131 0-25.6-11.443-25.6-25.6s11.469-25.6 25.6-25.6h179.2c14.157 0 25.6 11.443 25.6 25.6s-11.443 25.6-25.6 25.6z" />
<glyph unicode="&#xe61d;" d="M432 416l-240-240-112 112-80-80 192-192 320 320z" />
<glyph unicode="&#xe61e;" d="M50.944 343.322c0-38.221 12.775-65.843 37.939-82.048 20.608-13.287 44.544-15.283 56.986-15.283 3.021 0 5.427 0.128 7.117 0.231 0 0-3.942-25.677 15.104-51.097l-0.87 0.026c-32.999 0-140.647-6.912-140.647-95.411 0-90.035 98.867-94.592 118.681-94.592 1.561 0 2.458 0.026 2.458 0.026 0.231 0 1.638-0.051 4.045-0.051 12.723 0 45.619 1.587 76.186 16.461 39.629 19.226 59.75 52.711 59.75 99.456 0 45.184-30.618 72.064-52.992 91.725-13.645 11.981-25.446 22.323-25.446 32.384 0 10.24 8.601 17.946 19.507 27.699 17.613 15.769 34.253 38.221 34.253 80.666 0 37.325-4.839 62.361-34.662 78.233 3.123 1.587 14.106 2.739 19.559 3.507 16.154 2.202 39.782 4.711 39.782 17.894v2.534h-117.709c-1.178-0.025-119.040-4.403-119.040-112.358zM240.973 112.589c2.253-35.993-28.544-62.567-74.778-65.92-46.951-3.456-85.632 17.69-87.885 53.683-1.075 17.28 6.502 34.202 21.376 47.693 15.104 13.645 35.789 22.067 58.342 23.757 2.662 0.154 5.299 0.281 7.936 0.281 43.443 0 72.883-25.549 75.008-59.495zM210.227 367.975c11.546-40.627-5.888-83.098-33.664-90.931-3.2-0.896-6.502-1.357-9.831-1.357-25.472 0-50.688 25.753-60.032 61.235-5.222 19.942-4.813 37.351 1.177 54.118 5.888 16.461 16.461 27.623 29.773 31.36 3.2 0.921 6.528 1.357 9.856 1.357 30.72 0 50.483-12.749 62.72-55.782zM408.601 279.501v76.8h-48.64v-76.8h-76.8v-48.64h76.8v-76.8h48.64v76.8h76.8v48.64h-76.8z" />
<glyph unicode="&#xe61f;" d="M220.57 147.763c-13.44-70.477-29.85-138.061-78.49-173.363-15.001 106.547 22.041 186.547 39.245 271.488-29.338 49.408 3.533 148.787 65.433 124.288 76.16-30.131-65.945-183.629 29.44-202.803 99.61-20.019 140.262 172.8 78.515 235.494-89.241 90.573-259.789 2.099-238.797-127.513 5.094-31.693 37.837-41.319 13.082-85.043-57.114 12.647-74.163 57.702-71.962 117.76 3.533 98.279 88.32 167.091 173.363 176.614 107.571 12.058 208.512-39.475 222.413-140.646 15.693-114.176-48.512-237.85-163.558-228.941-31.155 2.381-44.237 17.817-68.685 32.666z" />
<glyph unicode="&#xe620;" d="M129.946 408.32c0-27.213-20.096-49.255-53.145-49.255-31.104 0-51.2 22.041-51.2 49.255 0 27.853 20.761 49.255 52.505 49.255s51.2-21.401 51.84-49.255zM28.211 3.226v316.928h98.509v-316.928h-98.509zM185.677 219.059c0 39.526-1.305 72.576-2.611 101.094h85.555l4.557-44.083h1.945c12.954 20.761 44.723 51.2 97.869 51.2 64.793 0 113.408-43.417 113.408-136.755v-187.315h-98.509v175.642c0 40.832-14.285 68.71-49.92 68.71-27.213 0-43.392-18.791-50.534-36.941-2.611-6.477-3.251-15.539-3.251-24.627v-182.784h-98.509v215.859z" />
<glyph unicode="&#xe621;" d="M282.931 280.064l34.918-16.87 52.711 16.87v30.592c0 63.027-51.379 114.304-114.56 114.304-63.155 0-114.534-51.277-114.534-114.304v-160.512c0-14.797-12.083-26.855-26.906-26.855s-26.906 12.058-26.906 26.855v67.2h-87.654v-67.2c0-63.027 51.379-114.304 114.56-114.304s114.56 51.277 114.56 114.304v160.512c0 14.797 12.083 26.854 26.906 26.854 14.848 0 26.931-12.058 26.931-26.854v-30.592zM424.371 217.344v-67.2c0-14.797-12.083-26.855-26.906-26.855-14.848 0-26.931 12.058-26.931 26.855v68.557l-52.711-16.87-34.918 16.87v-68.557c0-63.027 51.379-114.304 114.56-114.304 63.155 0 114.534 51.277 114.534 114.304v67.2h-87.629z" />
<glyph unicode="&#xe622;" d="M399.36 20.582c-19.865-9.472-37.888-16.154-53.99-19.968-16.128-3.789-33.587-5.735-52.301-5.735-21.274 0-40.064 2.739-56.448 8.166-16.333 5.453-30.259 13.209-41.831 23.219-11.546 10.112-19.559 20.787-24.013 32.128-4.48 11.341-6.707 27.776-6.707 49.305v165.223h-51.43v66.662c18.279 6.016 33.971 14.592 46.976 25.83 13.056 11.213 23.501 24.704 31.411 40.448 7.885 15.744 13.286 35.738 16.281 60.058h66.176v-119.065h110.464v-73.933h-110.464v-120.806c0-27.289 1.433-44.825 4.327-52.608 2.816-7.731 8.141-13.926 15.897-18.56 10.342-6.247 22.093-9.37 35.353-9.37 23.577 0 47.002 7.757 70.298 23.245v-74.24z" />
<glyph unicode="&#xe623;" d="M512 281.475l-176.89 25.704-79.11 160.291-79.108-160.291-176.892-25.704 128-124.769-30.216-176.176 158.216 83.179 158.216-83.179-30.217 176.176 128.001 124.769z" />
<glyph unicode="&#xe624;" d="M256 480c-141.385 0-256-114.615-256-256s114.615-256 256-256 256 114.615 256 256-114.615 256-256 256zM256 16c-114.875 0-208 93.125-208 208s93.125 208 208 208 208-93.125 208-208-93.125-208-208-208zM192 336l192-112-192-112z" />
<glyph unicode="&#xe625;" d="M483.377 37.752c-21.029 54.93-56.606 67.78-85.263 72.844-23.916 4.252-53.714 13.071-64.274 18.829-0.344 4.759-0.527 14.416 0.43 30.198 0.582 0.652 1.175 1.209 1.752 1.892l-0.299 0.271c14.137 18.788 20.883 36.438 23.927 48.359 9.127 6.38 18.715 18.809 24.353 42.852 3.267 13.94 5.714 31.538-4.381 44.143-0.253 0.301-0.476 0.592-0.729 0.894 1.824 17.789 0.922 33.777-1.894 48.108 0.663 7.269-3.688 18.392-6.579 24.23 3.89-3.122 5.743-9.738 7.025-14.396-0.542 7.103-2.978 14.783-6.939 20.741 2.603-0.974 4.974-5.256 6.433-7.57-0.38 2.701-3.003 6.516-4.751 8.659 2.654-0.256 4.892-2.69 7.142-4.945-2.594 4.367-5.298 6.907-10.161 8.187-1.767 7.775-6.271 15.967-10.925 22.422 10.894-2.72 15.666-12.975 18.928-22.964-0.547 28.803-33.347 44.012-53.774 50.553 0.562 1.797 0.978 4.020 0.238 7.022 6.848 0.603 13.139-0.281 19.788-1.858-2.112 1.22-4.913 2.093-7.319 2.495 5.916-0.251 11.644-1.907 17.094-4.121-7.055 5.431-17.353 7.339-29.306 6.977 0.339 1.175 0.481 2.37 0.39 3.589-0.973-1.807-3.404-3.996-5.475-4.372 1.56 1.406 3.688 3.474 3.779 7.067-0.911-1.742-3.161-3.283-5.034-3.82 1.606 1.159 3.14 3.383 3.247 5.391-2.457-2.58-7.998-4.894-11.548-5.391-2.695 2.635-7.911 6.646-14.445 7.976 2.533 1.295 6.418 3.433 7.901 5.822-2.077-1.435-5.931-3.488-9.218-3.86 2.771 1.496 5.136 2.716 7.577 5.762-3.945-2.57-7.137-4.578-13.134-5.808-4.154 5.336-15.291 8.945-22.012 8.067-1.995 1.627-5.131 3.449-7.719 3.75 3.221 2.454 9.902 3.363 16.699 3.383-4.447 1.12-13.493 0.678-17.996-2.495-3.358 1.877-8.549 3.278-12.409 3.208-5.607 5.431-15.362 11.229-28.080 9.984 12.273-0.979 20.594-5.933 24.869-12.724-5.268-0.593-14.066 1.24-14.506 7.589-0.512-0.713 0.831-6.747 1.16-8.036-5.111 5.321-12.678 9.186-21.49 8.754 10.328-0.979 19.171-8.534 24.677-13.804-4.432 0.522-16.537-2.294-20.29-4.689-4.28 0.869-10.312 0.261-13.833-2.469 2.994 1.551 7.84 1.416 11.057 0.582 0 0-9.76-1.225-21.136-5.918-11.386-4.684-20.594-13.177-20.594-13.177-12.060-4.010-29.944-13.864-34.493-26.845 2.669 3.257 4.827 5.521 8.347 7.956-2.735-3.177-5.662-6.611-7.172-10.551 2.071 2.48 5.197 6.169 8.24 7.264-3.095-3.86-5.982-7.379-8.595-11.626-4.502-3.464-14.299-11.736-17.281-21.393 2.426 3.032 3.743 4.708 6.98 6.716-2.224-3.464-6.326-8.995-7.522-13.433 1.767 2.927 3.272 3.769 5.353 5.572-3.941-6.55-8.332-12.103-9.426-18.808 2.588 5.165 4.781 8.388 9.020 12.363-1.814-4.438-5.111-11.741-5.222-16.329 0.466 1.998 2.391 5.039 4.001 6.314-1.94-5.31-3.546-9.582-3.763-16.731 1.534 4.588 2.385 7.545 4.523 11.033 0 0-0.188-5.115 1.033-13.904 1.221-8.794-2.623-11.183-2.623-11.183 1.778-0.828 2.958 0.196 3.788 1.351 0-1.903-1.281-6.038-3.885-6.752 1.829-0.482 3.004-0.025 4.26 1.33-0.603-6.224-0.745-16.625 2.68-21.93 0.445 0.773 0.699 1.37 1.099 1.872 0.040-0.928 0.076-1.847 0.132-2.786-0.248-1.476-0.288-2.987-0.050-4.182 0.106 0.406 0.198 0.778 0.299 1.135 0.112-1.451 0.198-2.881 0.35-4.352-0.269-0.301-0.496-0.593-0.725-0.894-10.114-12.604-7.648-30.208-4.386-44.137 5.642-24.049 15.205-36.478 24.357-42.853 3.008-11.831 9.745-29.25 23.613-47.882v-0.010c0.020-0.020 0.152-0.185 0.162-0.211 0.795-1.074 1.357-2.088 2.203-3.152 0.897-15.119 0.73-24.546 0.314-29.52-10.611-5.707-40.327-14.542-64.204-18.779-28.657-5.070-64.239-17.92-85.269-72.834-3.561-9.341-2.3-19.466 3.489-27.779 21.577-30.976 135.34-37.481 226.965-37.481s205.388 6.505 226.965 37.486c5.795 8.308 7.046 18.437 3.49 27.759v0zM165.998 226.535c0 0-0.218-0.035-0.613-0.035-2.816 0-14.724 1.837-21.714 31.678-5.44 23.196 0.248 26.87 4.437 26.87 1.935 0 3.536-0.788 3.536-0.788l9.466-29.159c-1.828 23.592-0.050 54.403 14.896 73.858 19.237 25.033 32.618 9.773 53.126-2.359 16.39-9.698 76.612-38.169 97.054-36.488 12.582 1.029 19.252 13.166 18.781 15.264-1.884-13.684 0.212-30.324-3.9-54.166-0.461-2.666 12.85 27.628 16.111 34.058 0.906 1.797 3.525-1.516 4.721-2.986 1.798-2.224 2.072-5.211 2.254-7.931 0.37-5.401-1.327-10.968-2.553-16.173-6.979-29.846-18.913-31.678-21.724-31.678-0.385 0-0.603 0.035-0.603 0.035s-1.499-27.984-27.478-58.152c0-0.236-0.041-0.497-0.041-0.723-20.214-20.389-40.834-30.274-61.524-29.5-25.72 1.059-46.036 18.447-56.13 28.978-0.015 0.156-0.030 0.392-0.030 0.547-26.505 30.439-28.075 58.85-28.075 58.85v0zM252.922-4.719c-108.881 0-217.747 11.485-208.959 34.414 17.54 45.844 45.473 54.538 67.805 58.488 22.342 3.95 76.587 17.403 81.353 30.053 1.464 3.805 1.986 10.887 2.092 18.853 13.671-10.159 31.95-19.772 53.941-20.726 1.206-0.065 2.416-0.101 3.621-0.101 19.859 0 39.208 7.298 57.847 21.404 0.086-8.202 0.618-15.536 2.102-19.431 4.766-12.644 59.007-26.097 81.358-30.053 22.337-3.95 50.264-12.644 67.81-58.488 8.783-22.93-100.089-34.414-208.97-34.414v0z" />
<glyph unicode="&#xe626;" d="M498.565 40.572c-21.492 56.6-57.837 69.841-87.122 75.060-20.534 3.678-45.261 10.68-59.053 16.339 7.602 5.648 20.312 20.446 22.005 22.928 3.778 5.534 7.137 11.363 10.065 17.389 2.096 4.303 6.717 11.611 6.666 16.505 0.103-9.993-4.238-21.553-8.373-28.577 19.5 14.219 20.814 67.26 26.413 89.615 12.58 50.212 4.688 118.098-24.928 166.168-24.846 40.339-87.375 76.683-133.744 49.416-58.628 31.959-113.675-56.729-123.239-106.026 2.412 5.798 8.616 21.010 12.514 24.998 0 0-10.185-24.093-14.221-45.159-4.031-21.072-3.918-50.072 1.066-71.889 4.983-21.811 4.973-37.173 4.973-37.173 1.325 4.862 1.894 9.186 1.971 14.353 0 0 4.911-35.828 11.597-57.924 6.686-22.086 16.064-40.297 32.126-48.298 1.165-0.579 2.215-1.045 3.203-1.365-0.042-0.704-0.083-1.361-0.135-1.945-10.837-5.881-41.204-14.984-65.599-19.349-29.281-5.224-65.635-18.465-87.122-75.049-3.638-9.625-2.349-20.058 3.571-28.623 22.041-31.918 138.282-38.621 231.894-38.621 93.616 0 209.859 6.703 231.899 38.627 5.921 8.56 7.204 18.998 3.571 28.603v0zM184.559 201.956c6.37-4.293 13.512-6.771 20.126-6.217-3.477 0.724-7.115 2.312-9.227 5.385 2.862-1.417 6.516-2.933 11.028-2.385-4.497 1.645-22.279 6.238-31.402 35.415-11.442 36.589-3.834 77.408 14.097 111.787 5.036 4.877 11.272 8.322 19.070 9.434 0 0 23.691-24.371 58.447-42.707v-0.026c0.119-0.052 0.253-0.109 0.378-0.166 13.875-7.282 29.488-13.53 46.084-16.934 0.808-0.238 1.61-0.476 2.406-0.708 4.233-16.132 9.227-31.51 18.392-44.145-3.747 10.309-9.574 27.558-12.938 42.64 0.714-0.191 1.423-0.377 2.122-0.554 5.47-18.397 11.178-37.695 18.402-53.289-3.498 13.768-6.733 27.336-9.16 41.352 0 0 9.465-27.102 15.701-46.317 0.849-2.617 1.408-5.333 1.837-8.089-2.417-10.841-8.969-30.521-26.672-51.257 0-0.243-0.036-0.512-0.036-0.745-20.659-21.010-41.726-31.194-62.866-30.397-26.274 1.091-47.031 19.008-57.35 29.86-0.016 0.161-0.031 0.404-0.031 0.564-8.311 9.63-14.206 19.050-18.407 27.501v0zM263.095-3.19c-111.243 0-222.476 11.834-213.502 35.461 17.921 47.238 46.462 56.197 69.284 60.267s78.247 17.932 83.121 30.966c1.49 3.921 2.024 11.219 2.132 19.427 13.968-10.469 32.65-20.373 55.114-21.356 1.237-0.067 2.469-0.103 3.7-0.103 20.291 0 40.060 7.521 59.104 22.055 0.088-8.452 0.632-16.008 2.147-20.022 4.87-13.029 60.295-26.89 83.127-30.966 22.822-4.070 51.363-13.029 69.284-60.267 8.974-23.627-102.264-35.461-213.512-35.461v0z" />
<glyph unicode="&#xe627;" d="M324.063 197.877c0.94-1.473 3.758-2.304 6.158-2.735 0.031 0.462 0.066 0.901 0.088 1.385-2.25 0.101-4.51 0.554-6.245 1.35zM328.661 199.367c0.409-0.426 1.015-0.757 1.701-1.038 0.005 0.272 0.017 0.541 0.022 0.818-0.695 0.044-1.31 0.123-1.723 0.22zM398.981 289.628c0.387-0.141 0.774-0.286 1.161-0.426-0.783 2.638-1.565 5.25-2.342 7.77 0.198-2.207 0.628-4.718 1.183-7.344zM330.401 199.776c-0.005-0.216-0.013-0.413-0.017-0.629 0.303-0.017 0.62-0.026 0.94-0.026-0.303 0.22-0.628 0.435-0.923 0.655zM396.538 289.294c-0.185 0.035-0.365 0.088-0.554 0.123 2.497-9.551 5.441-18.653 10.86-26.128-2.312 6.358-5.938 17.175-7.863 26.339-1.103 0.405-2.202 0.809-3.283 1.218 0.532-0.981 0.839-1.552 0.839-1.552zM333.61 197.49c0.308-0.207 0.646-0.404 0.962-0.611 0.501 0.106 1.046 0.167 1.495 0.325-0.668 0.039-1.547 0.145-2.457 0.286zM395.699 290.846c-0.031 0.013-0.062 0.022-0.092 0.035 0.123-0.488 0.25-0.976 0.378-1.464 0.189-0.035 0.369-0.088 0.554-0.123 0.005 0-0.308 0.572-0.839 1.552zM395.54 291.145c0.022-0.088 0.044-0.176 0.066-0.264 0.031-0.013 0.062-0.022 0.092-0.035-0.048 0.092-0.106 0.198-0.158 0.299zM503.76 139.447c-12.649 33.361-34.053 41.162-51.294 44.24-11.945 2.142-26.313 6.2-34.488 9.511 10.808 7.911 19.163 22.887 22.524 33.608 0.062-5.888-2.497-12.704-4.927-16.841 11.48 8.381 12.253 39.645 15.55 52.819 7.41 29.593 2.76 69.608-14.675 97.939-14.631 23.775-51.449 45.198-78.75 29.127-34.519 18.837-66.932-33.436-72.562-62.492 1.42 3.416 5.072 12.382 7.37 14.735 0 0-5.999-14.199-8.377-26.62-2.373-12.417-2.303-29.51 0.628-42.367s2.927-21.911 2.927-21.911c0.783 2.867 1.116 5.413 1.164 8.46 0 0 2.887-21.119 6.825-34.139s9.458-23.749 18.916-28.468c0.668-0.33 1.262-0.572 1.885-0.844-0.026-0.4-0.048-0.779-0.075-1.108-6.386-3.465-24.265-8.834-38.628-11.406-12.433-2.221-27.025-6.957-38.949-21.911 0.075 1.86 0.172 3.821 0.299 5.993 0.417 0.475 0.844 0.875 1.257 1.372l-0.215 0.198c10.135 13.601 14.974 26.37 17.159 35.002 6.544 4.617 13.418 13.613 17.457 31.017 2.342 10.087 4.096 22.826-3.138 31.95-0.185 0.215-0.343 0.426-0.523 0.642 1.305 12.88 0.659 24.448-1.363 34.821 0.479 5.263-2.642 13.314-4.716 17.544 2.791-2.264 4.123-7.058 5.036-10.425-0.387 5.144-2.136 10.699-4.975 15.012 1.868-0.703 3.565-3.803 4.615-5.479-0.272 1.957-2.154 4.718-3.406 6.271 1.903-0.185 3.507-1.948 5.12-3.579-1.863 3.157-3.801 4.995-7.287 5.928-1.266 5.629-4.496 11.556-7.832 16.226 7.81-1.97 11.233-9.393 13.567-16.621-0.391 20.847-23.909 31.857-38.553 36.593 0.405 1.297 0.703 2.907 0.172 5.083 4.91 0.435 9.418-0.207 14.187-1.346-1.517 0.88-3.525 1.508-5.248 1.803 4.241-0.18 8.351-1.38 12.258-2.981-5.059 3.931-12.442 5.312-21.012 5.048 0.242 0.853 0.347 1.719 0.281 2.599-0.699-1.31-2.439-2.894-3.929-3.166 1.12 1.020 2.646 2.515 2.712 5.118-0.655-1.257-2.263-2.375-3.608-2.77 1.151 0.844 2.25 2.454 2.325 3.909-1.762-1.869-5.736-3.548-8.28-3.909-1.929 1.913-5.669 4.815-10.355 5.778 1.815 0.936 4.601 2.484 5.665 4.212-1.49-1.037-4.255-2.524-6.61-2.792 1.987 1.082 3.683 1.965 5.433 4.168-2.831-1.856-5.116-3.311-9.414-4.2-2.98 3.861-10.965 6.472-15.782 5.839-1.433 1.174-3.683 2.493-5.534 2.709 2.308 1.781 7.098 2.44 11.972 2.453-3.191 0.809-9.673 0.488-12.904-1.807-2.409 1.358-6.131 2.37-8.895 2.321-4.017 3.931-11.018 8.126-20.133 7.225 8.803-0.708 14.763-4.291 17.831-9.207-3.775-0.431-10.082 0.897-10.403 5.492-0.365-0.514 0.597-4.881 0.835-5.817-3.666 3.852-9.089 6.649-15.409 6.341 7.405-0.712 13.744-6.178 17.69-9.995-3.178 0.378-11.853-1.662-14.543-3.394-3.072 0.629-7.397 0.189-9.919-1.785 2.145 1.117 5.621 1.020 7.924 0.422 0 0-6.993-0.888-15.154-4.283s-14.763-9.537-14.763-9.537c-8.645-2.902-21.47-10.039-24.731-19.431 1.916 2.357 3.463 3.997 5.981 5.756-1.956-2.296-4.056-4.784-5.138-7.638 1.486 1.794 3.727 4.463 5.907 5.259-2.219-2.796-4.29-5.338-6.157-8.412-3.231-2.507-10.254-8.495-12.394-15.487 1.736 2.194 2.686 3.408 5.006 4.863-1.596-2.511-4.535-6.512-5.397-9.726 1.27 2.12 2.352 2.731 3.841 4.036-2.826-4.744-5.973-8.759-6.755-13.618 1.855 3.742 3.424 6.077 6.465 8.948-1.301-3.21-3.665-8.495-3.745-11.815 0.334 1.446 1.714 3.645 2.865 4.568-1.389-3.843-2.54-6.935-2.694-12.11 1.103 3.32 1.71 5.462 3.243 7.986 0 0.005-0.136-3.698 0.739-10.060 0.874-6.367-1.881-8.095-1.881-8.095 1.275-0.603 2.123 0.14 2.716 0.976 0-1.377-0.918-4.371-2.787-4.886 1.314-0.352 2.153-0.022 3.055 0.963-0.43-4.507-0.532-12.040 1.921-15.874 0.321 0.558 0.501 0.99 0.791 1.355 0.031-0.673 0.052-1.337 0.093-2.019-0.176-1.064-0.207-2.159-0.035-3.025 0.075 0.294 0.141 0.563 0.211 0.822 0.084-1.051 0.145-2.085 0.255-3.153-0.194-0.216-0.356-0.427-0.523-0.642-7.248-9.124-5.481-21.867-3.142-31.95 4.048-17.404 10.904-26.401 17.462-31.017 2.162-8.562 6.988-21.173 16.93-34.654v-0.009c0.017-0.013 0.11-0.137 0.118-0.154 0.572-0.779 0.972-1.508 1.578-2.282 0.641-10.945 0.523-17.764 0.228-21.366-7.608-4.129-28.915-10.527-46.034-13.591-20.547-3.667-46.060-12.967-61.135-52.717-2.553-6.763-1.652-14.093 2.501-20.108 15.47-22.417 97.038-27.126 162.731-27.126 65.689 0 147.256 4.709 162.726 27.13 4.154 6.015 5.055 13.346 2.505 20.095-3.077 8.104-6.601 14.889-10.412 20.675 9.995-0.295 19.945-0.418 29.5-0.418 55.118 0 123.558 3.953 136.541 22.769 3.481 5.043 4.237 11.195 2.096 16.859v0zM313.296 253.541c-6.733 21.568-2.255 45.625 8.302 65.892 2.966 2.876 6.637 4.903 11.229 5.558 0 0 28.115-29.008 63.157-35.573-0.127 0.488-0.255 0.976-0.378 1.464-0.022 0.088-0.044 0.176-0.066 0.264 0.053-0.101 0.11-0.207 0.158-0.299 1.081-0.409 2.18-0.813 3.283-1.218-0.554 2.625-0.985 5.136-1.183 7.343 0.778-2.519 1.56-5.131 2.342-7.77 3.322-11.173 6.769-23.010 11.168-32.517-2.062 8.117-3.964 16.112-5.392 24.373 0 0 5.573-15.975 9.243-27.297 0.492-1.512 0.83-3.149 1.063-4.859-1.442-6.411-5.309-17.958-15.686-30.121 0-0.14-0.022-0.303-0.022-0.44-12.161-12.382-24.569-18.385-37.010-17.918-15.475 0.647-27.697 11.204-33.772 17.602-0.009 0.096-0.017 0.238-0.017 0.334-4.896 5.673-8.364 11.226-10.838 16.208 3.753-2.533 7.955-3.993 11.849-3.667-2.048 0.427-4.188 1.363-5.433 3.175 1.688-0.835 3.837-1.728 6.491-1.403-2.646 0.968-13.115 3.672-18.49 20.869v0zM118.477 216.2c0 0-0.154-0.022-0.439-0.022-2.017 0-10.557 1.328-15.567 22.927-3.903 16.788 0.18 19.448 3.182 19.448 1.385 0 2.536-0.567 2.536-0.567l6.79-21.111c-1.314 17.078-0.040 39.381 10.675 53.461 13.791 18.121 23.386 7.075 38.092-1.706 11.752-7.018 24.454-11.819 36.738-17.738 13.185-6.359 18.186-9.889 32.849-8.671 9.018 0.748 13.8 9.529 13.466 11.050-1.358-9.907 0.149-21.951-2.804-39.21-0.325-1.926 9.216 19.999 11.554 24.655 0.651 1.297 2.531-1.099 3.384-2.163 1.292-1.609 1.486-3.773 1.618-5.743 0.264-3.909-0.95-7.937-1.829-11.706-5.006-21.599-13.563-22.927-15.576-22.927-0.277 0-0.43 0.022-0.43 0.022s-1.077-20.253-19.703-42.090c0-0.167-0.026-0.361-0.026-0.524-14.495-14.757-29.28-21.911-44.113-21.353-18.437 0.769-33.007 13.35-40.245 20.974-0.009 0.115-0.022 0.286-0.022 0.4-19 22.030-20.13 42.591-20.13 42.591v0zM180.803 48.821c-78.065 0-156.121 8.31-149.822 24.906 12.578 33.185 32.602 39.478 48.618 42.336s54.907 12.598 58.327 21.753c1.046 2.752 1.424 7.88 1.499 13.649 9.801-7.356 22.907-14.313 38.677-15.003 0.866-0.048 1.732-0.075 2.593-0.075 14.24 0 28.115 5.281 41.476 15.491 0.061-5.936 0.444-11.243 1.507-14.062 0.304-0.809 0.967-1.623 1.78-2.436 8.416-8.381 41.942-16.705 56.551-19.317 9.928-1.772 21.39-4.877 31.666-14.872 6.307-6.13 12.17-14.845 16.952-27.465 6.298-16.595-71.758-24.906-149.822-24.906v0zM365.122 113.653c-14.144 0-28.277 0.325-41.709 0.976-12.451 11.279-26.344 15.483-38.514 17.654-14.376 2.581-31.684 7.479-41.375 11.454 10.482 19.889 24.876 24.228 36.676 26.334 13.44 2.401 46.073 10.571 48.943 18.252 0.505 1.324 0.808 3.346 0.998 5.707 0.031 0.361 0.057 0.73 0.079 1.108-2.399 0.431-5.217 1.262-6.158 2.735 1.736-0.796 3.995-1.249 6.245-1.35 0.026 0.58 0.035 1.196 0.053 1.803-0.685 0.281-1.292 0.611-1.701 1.038 0.413-0.096 1.029-0.176 1.723-0.22 0.005 0.216 0.013 0.413 0.017 0.629l0.923-0.655c0.752-0.55 1.495-1.095 2.286-1.632 0.91-0.14 1.789-0.246 2.457-0.286-0.449-0.159-0.993-0.22-1.495-0.325 7.643-4.991 17.163-9.204 28.282-9.687 0.725-0.044 1.45-0.062 2.175-0.062 8.887 0 17.598 2.458 26.094 7.238 2.927 1.649 5.832 3.562 8.707 5.76 0.013-1.324 0.053-2.603 0.11-3.821 0.070-1.508 0.193-2.863 0.351-4.111 0.075-0.589 0.14-1.209 0.238-1.719 0.158-0.831 0.343-1.557 0.567-2.15 2.87-7.678 35.499-15.848 48.943-18.252 13.44-2.397 30.243-7.678 40.795-35.52 5.287-13.926-60.212-20.9-125.712-20.9v0z" />
<glyph unicode="&#xe628;" d="M505.877 387.84v-331.825h-500.757v331.825h500.757zM320.226 213.62c1.505-1.51 3.010-3.021 4.516-4.531s3.010-2.517 4.516-4.028c2.509-2.517 5.017-5.036 7.526-7.553 2.007-2.014 4.014-3.524 6.021-5.036 2.007-2.014 3.512-4.028 5.519-5.539 1.505-1.51 3.010-2.517 4.516-3.524 1.505-1.51 2.509-3.021 4.014-4.531 3.512-3.021 6.523-6.043 10.035-9.567 2.509-2.014 4.516-4.531 7.024-6.546 2.007-1.51 4.014-3.021 5.519-5.036 2.509-2.517 5.017-5.036 7.526-7.553 3.512-3.524 7.526-7.050 11.038-10.574 3.010-3.021 6.523-5.539 9.031-8.56 0-0.503 0.502-0.503 1.003-0.503 0.502-0.503 0.502-1.007 1.003-1.51s1.505-1.51 2.007-2.014 3.010-2.517 4.516-4.028c1.505-1.51 3.010-3.524 4.516-5.036 3.010-2.517 6.021-5.036 8.53-7.553 2.509-2.014 4.516-4.531 6.523-6.546 4.516-4.028 9.031-8.057 13.046-12.588 4.516-4.028 9.031-8.56 13.046-13.091 1.505-1.51 3.512-2.517 6.021-2.517h17.562v7.050c0 1.007-0.502 2.517-1.505 3.021-1.003 1.007-2.509 2.014-3.512 3.021-3.010 2.517-6.021 5.036-8.53 8.056-2.509 2.517-5.017 5.036-8.028 7.553-4.014 4.028-8.028 7.553-12.544 11.581-1.003 1.007-2.509 2.517-3.512 3.524-2.007 2.014-4.014 3.524-6.021 5.539-1.505 1.51-3.010 2.517-4.014 4.028-2.007 2.014-3.512 3.524-5.519 5.539-1.505 1.51-3.010 2.517-4.516 4.028s-2.509 2.517-3.512 4.028c-3.512 3.524-7.024 6.546-10.537 10.070-2.509 2.517-5.519 5.036-8.028 7.553-1.003 1.007-1.505 2.014-2.509 3.021-2.007 1.51-4.014 3.021-5.519 5.036-1.505 1.51-3.010 3.524-5.017 5.036-1.505 1.51-3.512 3.021-5.017 4.531-3.010 3.021-6.021 5.539-8.53 8.56-1.003 1.007-2.007 2.014-3.010 3.021 0 0-0.502 0.503-1.003 0.503-1.505 1.51-3.010 2.517-4.516 4.028-2.007 1.51-3.512 3.524-5.519 5.539-1.505 1.51-3.512 3.021-5.017 4.531s-3.512 3.524-5.017 5.036c-1.505 1.51-3.512 2.517-5.017 4.028s-3.010 3.524-5.017 5.036c-2.007 2.014-4.014 4.028-6.523 6.042-1.003 1.007-2.509 2.014-3.512 3.021 1.003 0.504 1.003 0.504 1.505 1.007 6.021 5.539 13.046 10.071 18.565 16.617 2.007 2.014 4.014 3.524 6.021 5.036 2.509 2.014 4.516 3.524 7.024 5.539s4.516 4.028 6.523 6.042c1.505 1.511 3.010 2.517 4.516 4.028s3.512 3.021 5.017 4.532 7.024 5.539 10.537 8.56c3.512 3.021 7.526 6.546 11.038 9.567 2.007 1.511 3.512 3.021 5.519 5.036 2.509 2.014 5.519 4.531 8.028 6.546 3.010 2.518 6.021 5.036 9.031 7.553 3.512 3.021 6.523 6.546 10.537 9.064s6.523 6.042 10.537 8.56c4.516 3.021 8.028 7.049 12.544 10.574 3.512 3.021 6.523 6.042 10.035 8.56s6.523 5.539 10.035 8.56c1.003 1.007 2.509 2.014 3.512 2.517v13.091c-2.007-1.007-15.053-1.007-17.060 0-0.502-1.007-1.003-2.014-2.007-3.021-0.502-0.504-1.505-1.007-2.509-1.511-1.505-1.007-2.509-2.517-4.014-3.524-2.007-2.014-4.516-3.524-7.024-5.036-2.007-1.51-3.512-3.524-5.519-5.539s-4.516-3.524-6.523-5.539c-2.509-2.014-5.017-4.531-8.028-6.546-4.516-3.524-9.031-7.050-13.548-10.574-3.512-3.021-7.024-6.043-10.537-9.567-1.003-1.007-2.007-2.014-3.010-2.518-2.007-1.51-4.516-3.021-6.523-5.035-2.509-2.014-5.017-4.532-7.526-7.050-2.007-2.014-4.516-3.524-6.523-5.539-4.014-3.524-7.526-6.546-11.038-10.070-1.003-1.007-2.509-2.518-3.512-3.524-1.505-1.007-3.010-2.014-4.014-3.021-3.010-3.021-6.523-5.539-9.534-8.56-3.010-2.518-6.021-5.036-9.031-7.553-1.505-1.007-3.010-2.518-4.516-4.028-2.509-2.014-4.516-4.028-7.024-6.042-1.505-1.511-3.010-3.021-4.516-4.531-3.010-2.518-6.021-4.531-9.031-7.049-2.509-2.014-5.017-4.028-7.024-6.042s-4.516-4.028-6.523-6.042c-5.017-4.028-9.534-8.056-14.551-12.085-2.007-1.51-3.512-3.524-5.519-5.036-1.505-1.51-3.512-2.517-5.017-4.028-2.509-2.014-5.017-4.028-7.526-6.043s-4.516-4.028-7.024-6.043c-2.007-2.014-4.014-4.028-6.523-5.539-2.007-2.014-4.014-3.524-6.021-5.539-1.004-0.503-1.506-2.014-2.509-1.007s-2.007 1.51-3.512 2.517c-1.506 1.007-2.509 2.517-4.014 3.524-2.007 2.014-4.516 3.524-6.523 5.036-3.512 3.021-6.523 6.043-9.534 8.56-3.512 3.021-7.024 6.043-11.038 9.063-1.506 1.51-3.512 2.517-5.018 4.028-2.509 2.014-5.018 4.531-7.526 6.546-3.011 2.518-5.519 5.036-8.53 7.553s-6.021 5.539-9.031 8.056c-1.506 1.007-3.011 2.518-4.516 3.524-2.007 1.511-4.014 3.524-6.021 5.036-2.509 2.518-5.519 5.036-8.028 7.049-4.014 3.524-8.028 6.546-11.541 9.567s-7.024 6.043-10.537 9.063c-2.007 1.511-4.014 3.021-6.021 5.036-1.506 1.51-4.014 2.517-5.519 4.531h-0.502c-2.509 2.014-5.018 3.524-7.024 5.539-3.010 3.021-6.523 5.539-9.534 8.56-3.010 2.517-5.519 4.531-8.53 7.049-3.513 3.021-7.526 6.043-11.038 9.567-3.513 3.021-7.025 6.043-10.537 9.063-2.509 2.014-5.017 4.532-8.028 6.546-2.509 2.014-5.017 4.028-7.526 6.546l-9.031 7.553c-1.505 1.511-3.011 3.021-4.516 4.532-3.011 2.517-6.021 4.531-9.032 7.049-4.014 3.524-7.526 6.546-11.541 10.070-1.505-1.007-14.551-1.007-16.558 0v-13.091c3.512-3.021 7.024-6.042 10.537-9.063s7.526-6.546 11.038-9.567c3.513-3.021 7.526-6.042 11.038-9.567 4.014-3.524 8.028-7.050 12.544-10.574 3.010-2.518 6.021-5.539 9.031-8.057 3.513-3.021 7.025-6.042 10.537-9.063 3.010-2.518 7.025-4.531 9.031-7.553 3.010-3.524 7.025-4.531 9.534-8.56 1.004-1.511 3.513-2.517 5.017-4.028 3.010-2.518 6.021-5.539 9.031-8.057s6.523-5.539 9.534-8.057c2.509-2.014 5.018-4.028 7.526-6.546 3.011-2.518 5.519-4.531 8.53-7.049 2.509-2.014 5.018-4.531 8.028-7.049 1.506-1.511 3.512-3.021 5.018-4.531 4.516-4.028 9.031-7.553 14.049-11.581-1.004-1.007-2.509-1.51-3.512-2.517-1.506-1.51-3.011-3.021-4.516-4.531-3.011-2.517-5.519-5.036-8.53-7.553-2.007-2.014-4.014-4.028-6.021-6.043-2.509-2.517-5.018-4.531-7.526-7.050-1.004-1.007-2.509-2.014-3.512-3.021-0.502-0.503-1.004-2.014-1.506-2.517-1.506-1.51-3.512-2.517-5.018-3.524-2.509-2.014-5.018-4.531-7.025-7.050-3.513-3.021-6.523-6.546-10.035-9.567-3.513-3.524-7.025-6.546-10.537-9.567-2.509-2.014-4.516-4.531-7.025-6.546-3.010-3.021-6.021-6.043-9.534-8.56-1.004-1.007-1.505-2.014-2.509-3.021-1.505-1.51-3.513-2.517-5.017-4.028-2.509-2.517-5.017-5.036-7.526-8.056-2.007-2.014-4.516-4.531-7.025-6.546-3.010-2.517-5.52-5.036-8.53-7.553-1.505-1.51-3.011-2.517-4.516-4.028s-3.011-3.021-4.516-4.531c-2.509-2.014-4.516-4.028-7.025-6.546-1.004-1.007-2.007-2.014-3.011-3.021-2.509-2.014-4.516-4.028-7.024-6.546-1.003-1.007-2.007-2.014-3.011-3.021-2.007-1.51-4.014-3.524-6.021-5.036-0.502-0.503-1.003-2.014-1.003-2.517v-7.050h18.565c1.505 0 2.509 0.503 4.014 1.51 3.513 3.524 7.526 7.050 11.038 10.574 1.505 1.51 3.513 2.517 4.516 4.531 1.505 1.51 2.509 3.021 4.014 4.028 0.502 0.503 0.502 1.007 1.004 1.51 1.004 1.007 2.007 1.51 3.010 2.517 1.505 1.007 2.509 2.517 3.513 3.524 2.007 1.51 4.014 3.021 5.519 5.036 2.007 2.014 4.014 3.524 6.021 5.539 1.505 1.51 3.010 2.517 4.516 4.028s3.010 3.021 4.516 4.531c2.509 2.517 5.519 5.036 8.53 7.553 2.007 2.014 4.516 4.028 6.523 6.043 4.014 3.524 8.028 7.553 11.54 11.077 2.509 2.517 5.519 5.036 8.028 7.553 1.003 1.007 2.509 2.014 4.014 3.524 4.014 3.524 7.526 7.553 11.541 11.077 3.512 3.021 6.523 6.546 10.035 9.567 1.004 1.007 2.007 2.014 3.512 3.021 1.004 0.503 2.007 1.007 2.509 2.014 1.004 1.007 1.506 2.014 2.509 3.021 4.516 4.531 9.534 8.56 14.551 13.091 2.509 2.014 4.516 4.531 7.024 7.050 2.007 2.014 4.014 3.524 6.021 5.036 21.576-18.127 42.649-36.757 64.226-54.885 1.506 1.007 3.512 2.014 4.516 3.021 2.509 2.517 5.017 5.036 8.028 7.050 3.512 2.517 6.523 5.036 9.534 8.057 3.512 3.021 7.024 6.546 11.038 9.567 2.509 2.014 5.519 4.028 8.028 6.546 1.505 1.51 3.512 2.517 5.017 4.028l1.003 1.007c0.502 0.503 1.003 2.014 2.007 2.014 1.505 0.503 2.509 1.51 3.512 2.517 5.519 6.043 9.534 9.567 14.050 13.091v0z" />
<glyph unicode="&#xe629;" d="M277.106 480h-251.675c-13.972 0-25.43-11.336-25.43-25.158v-460.298c0-13.847 11.458-25.197 25.43-25.197h251.675c13.972 0 25.425 11.351 25.425 25.197v460.298c0 13.822-11.453 25.158-25.425 25.158v0zM151.266-17.358c-16.853 0-30.514 13.529-30.514 30.246 0 16.673 13.661 30.241 30.514 30.241 16.848 0 30.499-13.569 30.499-30.241 0-16.717-13.651-30.246-30.499-30.246v0zM33.385 442.224h235.756v-384.691h-235.756v384.691z" horiz-adv-x="306" />
<glyph unicode="&#xe62a;" d="M377.856 230.144h-229.888c-36.352 0-66.048-29.696-66.048-66.048v-53.248c0-36.352 29.696-66.048 66.048-66.048h229.888c36.352 0 66.048 29.696 66.048 66.048v52.736c0.512 36.864-29.184 66.56-66.048 66.56zM196.096 188.672h-21.504v-106.496h-20.48v106.496h-21.504v17.92h63.488v-17.92zM256.512 82.176h-18.432v10.24c-3.584-3.584-7.168-6.656-10.752-8.704s-7.168-3.072-10.752-3.072c-4.096 0-7.68 1.536-9.728 4.096s-3.072 6.656-3.072 12.288v76.8h18.432v-70.144c0-2.048 0.512-3.584 1.024-4.608 1.024-1.024 2.048-1.536 3.584-1.536s3.072 0.512 5.12 2.048c2.048 1.536 4.096 3.072 5.632 5.12v69.12h18.432v-91.648zM323.072 101.12c0-6.656-1.536-11.264-4.096-14.848-3.072-3.584-7.168-5.12-12.288-5.12-3.584 0-6.656 0.512-9.728 2.048-2.56 1.536-5.632 3.584-7.68 6.144v-7.168h-18.432v124.416h18.432v-39.936c2.56 2.56 5.12 5.12 7.68 6.144 3.072 1.536 5.632 2.048 8.704 2.048 5.632 0 10.24-2.048 13.312-5.632 3.072-4.096 4.608-9.728 4.608-16.896v-51.2zM386.56 125.696h-35.328v-17.408c0-4.608 0.512-8.192 2.048-10.24 1.024-2.048 3.072-2.56 6.144-2.56s5.12 1.024 6.144 2.56c1.024 1.536 2.048 5.12 2.048 10.24v4.096h18.944v-4.608c0-9.216-2.048-16.384-6.656-21.504-4.608-4.608-11.264-7.168-20.48-7.168-8.192 0-14.848 2.56-19.456 7.68s-7.168 11.776-7.168 20.992v41.472c0 7.68 2.56 14.336 7.68 19.456s11.776 7.68 19.968 7.68c8.192 0 14.848-2.56 19.456-7.168s6.656-11.264 6.656-19.968v-23.552zM359.936 160c-3.072 0-5.12-1.024-6.144-2.56-1.536-1.536-2.048-4.096-2.048-8.192v-9.216h16.384v9.216c0 4.096-0.512 6.656-2.048 8.192-1.536 2.048-3.584 2.56-6.144 2.56zM296.448 160.512c-1.536 0-2.56-0.512-4.096-1.024s-2.56-1.536-3.584-2.56v-57.344c1.536-1.536 3.072-2.56 4.096-3.072 1.536-0.512 3.072-1.024 4.608-1.024 2.048 0 4.096 0.512 5.12 2.048s1.536 3.584 1.536 6.144v47.616c0 3.072-0.512 5.632-2.048 7.168-1.024 1.024-3.072 2.048-5.632 2.048zM178.176 261.888h23.040v56.832l27.136 79.872h-23.552l-14.336-54.784h-1.536l-15.36 54.784h-23.040l27.648-82.432zM259.584 259.328c9.216 0 16.896 2.56 22.016 7.168 5.12 5.12 8.192 11.776 8.192 20.48v52.224c0 7.68-2.56 13.824-8.192 18.944s-12.288 7.168-20.992 7.168c-9.216 0-16.896-2.56-22.528-7.168s-8.192-10.752-8.192-18.944v-52.224c0-8.704 2.56-15.36 8.192-20.48 5.632-4.608 12.8-7.168 21.504-7.168zM251.392 340.736c0 2.048 1.024 4.096 2.56 5.632s3.584 2.048 6.144 2.048c2.56 0 5.12-0.512 6.656-2.048s2.56-3.072 2.56-5.632v-55.296c0-2.56-1.024-4.608-2.56-6.144s-4.096-2.56-6.656-2.56c-2.56 0-4.608 0.512-6.144 2.56-1.536 1.536-2.048 3.584-2.048 6.144v55.296zM321.024 260.352c4.096 0 7.68 1.024 11.776 3.072s8.192 5.12 11.776 9.216v-11.264h20.48v101.376h-20.48v-76.8c-2.048-2.048-4.096-4.096-6.144-5.632-2.56-1.536-4.096-2.048-5.632-2.048-2.048 0-3.584 0.512-4.096 1.536-1.024 1.024-1.536 2.56-1.536 5.12v77.824h-20.48v-84.48c0-6.144 1.024-10.24 3.584-13.312s6.144-4.608 10.752-4.608z" />
<glyph unicode="&#xe62b;" d="M469.344 432h-69.344v32c0 8.848-7.152 16-16 16s-16-7.152-16-16v-32h-96v32c0 8.848-7.168 16-16 16s-16-7.152-16-16v-32h-96v32c0 8.848-7.168 16-16 16s-16-7.152-16-16v-32h-69.328c-23.568 0-42.672-19.088-42.672-42.656v-378.672c0-23.568 19.104-42.672 42.672-42.672h426.672c23.568 0 42.656 19.104 42.656 42.672v378.672c0 23.568-19.088 42.656-42.656 42.656zM480 10.672c0-5.888-4.784-10.672-10.656-10.672h-426.672c-5.888 0-10.672 4.784-10.672 10.672v378.672c0 5.872 4.784 10.656 10.672 10.656h69.328v-32c0-8.848 7.168-16 16-16s16 7.152 16 16v32h96v-32c0-8.848 7.168-16 16-16s16 7.152 16 16v32h96v-32c0-8.848 7.152-16 16-16s16 7.152 16 16v32h69.344c5.872 0 10.656-4.784 10.656-10.656v-378.672zM112 288h64v-48h-64zM112 208h64v-48h-64zM112 128h64v-48h-64zM224 128h64v-48h-64zM224 208h64v-48h-64zM224 288h64v-48h-64zM336 128h64v-48h-64zM336 208h64v-48h-64zM336 288h64v-48h-64z" />
</font>
</defs>
</svg>
